<svg xmlns="http://www.w3.org/2000/svg" xmlns:xlink="http://www.w3.org/1999/xlink" preserveAspectRatio="xMidYMid meet" width="1080" height="1080" viewBox="0 0 1080 1080" style="width:100%;height:100%"><defs><animateMotion repeatCount="indefinite" dur="5s" begin="0s" xlink:href="#_R_G_L_0_G_L_9_G" fill="freeze" keyTimes="0;0.0666667;0.1333333;1" path="M517.05 612.22 C517.05,612.22 517.05,603.89 517.05,603.89 C517.05,603.89 517.05,612.22 517.05,612.22 C517.05,612.22 517.05,612.22 517.05,612.22 " keyPoints="0;0.5;1;1" keySplines="0.167 0.167 0.833 0.833;0.167 0.167 0.833 0.833;0 0 0 0" calcMode="spline"/><animateTransform repeatCount="indefinite" dur="5s" begin="0s" xlink:href="#_R_G_L_0_G_L_9_G" fill="freeze" attributeName="transform" from="-110.596 -54.431" to="-110.596 -54.431" type="translate" additive="sum" keyTimes="0;1" values="-110.596 -54.431;-110.596 -54.431" keySplines="0 0 1 1" calcMode="spline"/><animate repeatCount="indefinite" dur="5s" begin="0s" xlink:href="#_R_G_L_0_G_L_9_G_M" fill="freeze" attributeName="opacity" from="1" to="0" keyTimes="0;0.5333333;0.5333333;1" values="1;1;0;0" keySplines="0 0 0 0;0 0 0 0;0 0 0 0" calcMode="spline"/><animateMotion repeatCount="indefinite" dur="5s" begin="0s" xlink:href="#_R_G_L_0_G_L_8_G" fill="freeze" keyTimes="0;0.6666667;0.7333333;0.8;1" path="M517.05 612.22 C517.05,612.22 517.05,612.22 517.05,612.22 C517.05,612.22 517.05,603.89 517.05,603.89 C517.05,603.89 517.05,612.22 517.05,612.22 C517.05,612.22 517.05,612.22 517.05,612.22 " keyPoints="0;0;0.5;1;1" keySplines="0.167 0.167 0.833 0.833;0.167 0.167 0.833 0.833;0.167 0.167 0.833 0.833;0 0 0 0" calcMode="spline"/><animateTransform repeatCount="indefinite" dur="5s" begin="0s" xlink:href="#_R_G_L_0_G_L_8_G" fill="freeze" attributeName="transform" from="-110.596 -54.431" to="-110.596 -54.431" type="translate" additive="sum" keyTimes="0;1" values="-110.596 -54.431;-110.596 -54.431" keySplines="0 0 1 1" calcMode="spline"/><animate repeatCount="indefinite" dur="5s" begin="0s" xlink:href="#_R_G_L_0_G_L_8_G_M" fill="freeze" attributeName="opacity" from="0" to="1" keyTimes="0;0.6666667;0.6666675;1" values="0;0;1;1" keySplines="0 0 0 0;0 0 0 0;0 0 0 0" calcMode="spline"/><animateTransform repeatCount="indefinite" dur="5s" begin="0s" xlink:href="#_R_G_L_0_G_L_7_G" fill="freeze" attributeName="transform" from="1 1" to="1 1" type="scale" additive="sum" keyTimes="0;0.0166667;0.0333333;0.05;0.0666667;0.2333333;0.25;0.2666667;0.4;1" values="1 1;1 0.24;1 1;1 0.24;1 1;1 1;1 0.24;1 1;1 1;1 1" keySplines="0.333 0 0.667 1;0.333 0 0.667 1;0.333 0 0.667 1;0.333 0 0.667 1;0.333 0 0.667 1;0.333 0 0.667 1;0.333 0 0.667 1;0.333 0 0.667 1;0 0 0 0" calcMode="spline"/><animateTransform repeatCount="indefinite" dur="5s" begin="0s" xlink:href="#_R_G_L_0_G_L_7_G" fill="freeze" attributeName="transform" from="-19.99 -21.79" to="-19.99 -21.79" type="translate" additive="sum" keyTimes="0;1" values="-19.99 -21.79;-19.99 -21.79" keySplines="0 0 1 1" calcMode="spline"/><animateTransform repeatCount="indefinite" dur="5s" begin="0s" xlink:href="#_R_G_L_0_G_L_6_G" fill="freeze" attributeName="transform" from="1 1" to="1 1" type="scale" additive="sum" keyTimes="0;0.0166667;0.0333333;0.05;0.0666667;0.2333333;0.25;0.2666667;0.4;1" values="1 1;1 0.24;1 1;1 0.24;1 1;1 1;1 0.24;1 1;1 1;1 1" keySplines="0.333 0 0.667 1;0.333 0 0.667 1;0.333 0 0.667 1;0.333 0 0.667 1;0.333 0 0.667 1;0.333 0 0.667 1;0.333 0 0.667 1;0.333 0 0.667 1;0 0 0 0" calcMode="spline"/><animateTransform repeatCount="indefinite" dur="5s" begin="0s" xlink:href="#_R_G_L_0_G_L_6_G" fill="freeze" attributeName="transform" from="-21.89 -24.09" to="-21.89 -24.09" type="translate" additive="sum" keyTimes="0;1" values="-21.89 -24.09;-21.89 -24.09" keySplines="0 0 1 1" calcMode="spline"/><animateMotion repeatCount="indefinite" dur="5s" begin="0s" xlink:href="#_R_G_L_0_G_L_5_G_N_11_T_0" fill="freeze" keyTimes="0;0.0666667;0.1333333;1" path="M517.05 612.22 C517.05,612.22 517.05,603.89 517.05,603.89 C517.05,603.89 517.05,612.22 517.05,612.22 C517.05,612.22 517.05,612.22 517.05,612.22 " keyPoints="0;0.5;1;1" keySplines="0.167 0.167 0.833 0.833;0.167 0.167 0.833 0.833;0 0 0 0" calcMode="spline"/><animateTransform repeatCount="indefinite" dur="5s" begin="0s" xlink:href="#_R_G_L_0_G_L_5_G_N_11_T_0" fill="freeze" attributeName="transform" from="-110.596 -54.431" to="-110.596 -54.431" type="translate" additive="sum" keyTimes="0;1" values="-110.596 -54.431;-110.596 -54.431" keySplines="0 0 1 1" calcMode="spline"/><animate repeatCount="indefinite" dur="5s" begin="0s" xlink:href="#_R_G_L_0_G_L_5_G_N_11_T_0_M" fill="freeze" attributeName="opacity" from="1" to="0" keyTimes="0;0.5333333;0.5333333;1" values="1;1;0;0" keySplines="0 0 0 0;0 0 0 0;0 0 0 0" calcMode="spline"/><animateMotion repeatCount="indefinite" dur="5s" begin="0s" xlink:href="#_R_G_L_0_G_L_4_G_N_10_T_0" fill="freeze" keyTimes="0;0.6666667;0.7333333;0.8;1" path="M517.05 612.22 C517.05,612.22 517.05,612.22 517.05,612.22 C517.05,612.22 517.05,603.89 517.05,603.89 C517.05,603.89 517.05,612.22 517.05,612.22 C517.05,612.22 517.05,612.22 517.05,612.22 " keyPoints="0;0;0.5;1;1" keySplines="0.167 0.167 0.833 0.833;0.167 0.167 0.833 0.833;0.167 0.167 0.833 0.833;0 0 0 0" calcMode="spline"/><animateTransform repeatCount="indefinite" dur="5s" begin="0s" xlink:href="#_R_G_L_0_G_L_4_G_N_10_T_0" fill="freeze" attributeName="transform" from="-110.596 -54.431" to="-110.596 -54.431" type="translate" additive="sum" keyTimes="0;1" values="-110.596 -54.431;-110.596 -54.431" keySplines="0 0 1 1" calcMode="spline"/><animate repeatCount="indefinite" dur="5s" begin="0s" xlink:href="#_R_G_L_0_G_L_4_G_N_10_T_0_M" fill="freeze" attributeName="opacity" from="0" to="1" keyTimes="0;0.6666667;0.6666675;1" values="0;0;1;1" keySplines="0 0 0 0;0 0 0 0;0 0 0 0" calcMode="spline"/><animateMotion repeatCount="indefinite" dur="5s" begin="0s" xlink:href="#_R_G_L_0_G_L_2_G" fill="freeze" keyTimes="0;0.0666667;0.1333333;1" path="M541.49 522.47 C541.49,522.47 541.49,519.25 541.49,519.25 C541.49,519.25 541.49,522.47 541.49,522.47 C541.49,522.47 541.49,522.47 541.49,522.47 " keyPoints="0;0.5;1;1" keySplines="0.167 0.167 0.833 0.833;0.167 0.167 0.833 0.833;0 0 0 0" calcMode="spline"/><animateTransform repeatCount="indefinite" dur="5s" begin="0s" xlink:href="#_R_G_L_0_G_L_2_G" fill="freeze" attributeName="transform" from="-41.055 -31.465" to="-41.055 -31.465" type="translate" additive="sum" keyTimes="0;1" values="-41.055 -31.465;-41.055 -31.465" keySplines="0 0 1 1" calcMode="spline"/><animate repeatCount="indefinite" dur="5s" begin="0s" xlink:href="#_R_G_L_0_G_L_1_G_L_5_G_M" fill="freeze" attributeName="opacity" from="0" to="0" keyTimes="0;0.5333333;0.5666667;0.5666675;0.6166667;0.6166667;1" values="0;0;0;1;1;0;0" keySplines="0 0 0 0;0 0 0 0;0 0 0 0;0 0 0 0;0 0 0 0;0 0 0 0" calcMode="spline"/><animate repeatCount="indefinite" dur="5s" begin="0s" xlink:href="#_R_G_L_0_G_L_1_G_L_4_G_M" fill="freeze" attributeName="opacity" from="0" to="0" keyTimes="0;0.5333333;0.55;0.5500008;0.5666667;0.5666667;1" values="0;0;0;1;1;0;0" keySplines="0 0 0 0;0 0 0 0;0 0 0 0;0 0 0 0;0 0 0 0;0 0 0 0" calcMode="spline"/><animate repeatCount="indefinite" dur="5s" begin="0s" xlink:href="#_R_G_L_0_G_L_1_G_L_3_G_M" fill="freeze" attributeName="opacity" from="0" to="0" keyTimes="0;0.5333333;0.5333333;0.5333342;0.55;0.55;1" values="0;0;0;1;1;0;0" keySplines="0 0 0 0;0 0 0 0;0 0 0 0;0 0 0 0;0 0 0 0;0 0 0 0" calcMode="spline"/><animate repeatCount="indefinite" dur="5s" begin="0s" xlink:href="#_R_G_L_0_G_L_1_G_L_2_G_M" fill="freeze" attributeName="opacity" from="0" to="0" keyTimes="0;0.5333333;0.6166667;0.6166675;0.6333333;0.6333333;1" values="0;0;0;1;1;0;0" keySplines="0 0 0 0;0 0 0 0;0 0 0 0;0 0 0 0;0 0 0 0;0 0 0 0" calcMode="spline"/><animate repeatCount="indefinite" dur="5s" begin="0s" xlink:href="#_R_G_L_0_G_L_1_G_L_1_G_M" fill="freeze" attributeName="opacity" from="0" to="0" keyTimes="0;0.5333333;0.6333333;0.6333342;0.65;0.65;1" values="0;0;0;1;1;0;0" keySplines="0 0 0 0;0 0 0 0;0 0 0 0;0 0 0 0;0 0 0 0;0 0 0 0" calcMode="spline"/><animate repeatCount="indefinite" dur="5s" begin="0s" xlink:href="#_R_G_L_0_G_L_1_G_L_0_G_M" fill="freeze" attributeName="opacity" from="0" to="0" keyTimes="0;0.5333333;0.65;0.6500008;0.6666667;0.6666667;1" values="0;0;0;1;1;0;0" keySplines="0 0 0 0;0 0 0 0;0 0 0 0;0 0 0 0;0 0 0 0;0 0 0 0" calcMode="spline"/><animate repeatCount="indefinite" dur="5s" begin="0s" xlink:href="#_R_G_L_0_G_L_1_G_M" fill="freeze" attributeName="opacity" from="0" to="0" keyTimes="0;0.5333333;0.5333342;0.6666667;0.6666667;1" values="0;0;1;1;0;0" keySplines="0 0 0 0;0 0 0 0;0 0 0 0;0 0 0 0;0 0 0 0" calcMode="spline"/><animateMotion repeatCount="indefinite" dur="5s" begin="0s" xlink:href="#_R_G_L_0_G" fill="freeze" keyTimes="0;0.1;0.2;1" path="M1011.66 600 C1011.66,600 1011.66,510 1011.66,510 C1011.66,510 1011.66,600 1011.66,600 C1011.66,600 1011.66,600 1011.66,600 " keyPoints="0;0.5;1;1" keySplines="0.333 0 0.667 1;0.333 0 0.667 1;0 0 0 0" calcMode="spline"/><animateTransform repeatCount="indefinite" dur="5s" begin="0s" xlink:href="#_R_G_L_0_G" fill="freeze" attributeName="transform" from="-960 -540" to="-960 -540" type="translate" additive="sum" keyTimes="0;1" values="-960 -540;-960 -540" keySplines="0 0 1 1" calcMode="spline"/><animate attributeType="XML" attributeName="opacity" dur="5s" from="0" to="1" xlink:href="#time_group"/></defs><g id="_R_G"><g id="_R_G_L_0_G"><g id="_R_G_L_0_G_L_11_G" transform=" translate(468.468, 544.108) translate(-237.148, -202.822)"><path id="_R_G_L_0_G_L_11_G_D_0_P_0" fill="#ffd660" fill-opacity="1" fill-rule="nonzero" d=" M31.9 33.75 C46.05,22.58 79.37,9.24 94.26,3.97 C123.12,0.25 143.6,9.56 205.97,20.72 C268.33,31.89 334.42,12.35 375.38,6.76 C416.34,1.18 447.05,30.03 460.08,45.86 C473.12,61.68 474.05,89.61 458.22,97.05 C442.4,104.5 425.64,115.67 434.02,192 C442.4,268.33 407.96,323.25 398.65,352.1 C384.18,396.95 312.52,405.39 271.13,393.06 C263.93,390.91 262.59,389.48 241.49,378.34 C163.72,337.24 156.59,343.27 138.01,328.83 C93.3,294.06 71,250.22 71,151.04 C71,126.84 39.35,86.81 19.8,78.44 C0.25,70.06 14.21,47.72 31.9,33.75z "/></g><g id="_R_G_L_0_G_L_10_G" transform=" translate(448.325, 538.325) translate(-243.375, -205.775)"><path id="_R_G_L_0_G_L_10_G_D_0_P_0" fill="#000000" fill-opacity="1" fill-rule="nonzero" d=" M472.04 53.98 C472.03,53.96 472.02,53.94 472,53.92 C468.41,48.23 464.63,43.11 461.41,39.06 C461.39,39.04 461.37,39.02 461.35,38.99 C457.08,33.61 453.83,30.13 453.41,29.68 C445.28,21.05 434.35,16.81 423.49,13.87 C408.9,7.57 393.7,3.81 381.64,3.52 C355.66,2.9 323.67,24.97 263.36,24.97 C216.42,24.97 176.06,9.39 139.13,3.07 C139.12,3.07 139.1,3.06 139.09,3.06 C128.78,1.29 118.73,0.25 108.89,0.47 C108.69,0.47 108.5,0.47 108.3,0.48 C63.01,1.71 0.25,42.99 3.27,71.06 C6.3,99.12 34.58,100.73 46.69,118.71 C58.79,136.69 61.19,234.71 99.94,302.58 C116.96,332.4 133.8,345.92 151.71,353.47 C156.14,356.09 161.11,358.6 166.95,361.26 C180.29,367.34 189.59,368.06 199.44,368.82 C202.97,369.1 206.6,369.38 210.73,369.92 C211.3,369.99 211.87,370.07 212.46,370.15 C215.7,370.62 219.41,371.48 223.24,372.64 C227.95,374.07 232.84,375.95 237.31,378.08 C237.89,378.35 238.7,378.92 239.65,379.67 C240.51,380.36 241.5,381.2 242.53,382.11 C245.08,384.38 247.92,387.11 250,389.1 C253.59,392.56 256.99,395.83 259.73,397.96 C261.62,399.45 263.78,401.15 266.23,402.79 C270.18,405.45 274.88,407.93 280.38,409.09 C287.32,410.57 295.4,411.3 303.99,411.3 C331.48,411.3 364.12,403.8 381.07,389.5 C390.46,381.58 395.73,373.29 399.42,364.98 C399.43,364.96 399.44,364.94 399.45,364.92 C401.67,359.92 403.31,354.91 404.93,349.97 C407.3,342.72 409.55,335.88 413.56,328.8 C414.19,327.69 414.93,326.55 415.74,325.39 C417.59,322.74 419.82,319.98 422,317.29 C427.13,310.95 432.43,304.41 434.68,297.26 C442.97,270.56 443.45,249.54 444,225.22 C444.1,221 444.2,216.65 444.34,212.11 C444.51,206.69 444.83,201.56 445.15,196.59 C446.14,180.66 447.09,165.61 442.87,147.31 C442.87,147.31 442.81,145.5 442.81,145.5 C442.81,145.5 442.41,133.21 442.41,133.21 C442.41,133.21 442.31,130.09 442.31,130.09 C443.73,128.73 445.58,126.95 447.69,124.94 C449.67,123.03 451.86,120.92 454.14,118.74 C459.62,113.46 465.54,107.75 469.84,103.56 C471.09,104.07 472.45,104.43 473.91,104.47 C475.28,104.52 476.72,104.29 478.22,103.67 C480.42,102.76 484.21,100.27 485.01,93.77 C486.5,80.97 479.71,66.15 472.04,53.98z  M462.33 86.04 C458.91,89.51 446.65,101.32 437.55,110.06 C427.37,81.59 405.27,71.56 397.05,68.75 C392.41,67.15 387.36,69.63 385.78,74.27 C384.19,78.91 386.66,83.95 391.3,85.54 C400.76,88.78 421.53,99.76 424.68,134.08 C425,137.58 425.14,141.32 425.06,145.32 C425.06,145.53 425.06,145.73 425.07,145.94 C425.07,145.94 425.16,148.77 425.16,148.77 C425.18,149.37 425.26,149.96 425.4,150.54 C429.24,166.65 428.4,180.01 427.43,195.48 C427.11,200.63 426.78,205.94 426.6,211.55 C426.45,216.14 426.35,220.54 426.26,224.81 C425.71,248.75 425.28,267.67 417.74,291.97 C416.51,295.86 412.29,301.08 408.21,306.12 C404.61,310.55 400.9,315.15 398.12,320.04 C393.23,328.66 390.48,337.04 388.06,344.44 C384.02,356.75 380.83,366.47 369.62,375.93 C367.73,377.53 365.54,379.02 363.13,380.41 C357.2,384.39 351.34,386.18 347.4,387 C347.56,386.99 347.72,386.97 347.88,386.95 C327.43,393.53 300.99,395.34 284.06,391.72 C279.56,390.78 275.53,387.81 270.69,383.99 C268.62,382.38 265.4,379.29 262.29,376.3 C254.82,369.12 249.58,364.26 244.95,362.06 C235.2,357.41 223.98,353.86 214.96,352.58 C209.54,351.81 204.91,351.45 200.81,351.13 C191.51,350.4 184.8,349.88 174.32,345.11 C154.56,336.08 147.05,329.83 134.1,311.64 C113.78,283.2 97.84,247.42 91.45,215.93 C91.45,215.93 90.54,211.5 90.54,211.5 C89.56,207.28 88.33,201.52 87.19,194.63 C86.64,191.33 85.71,185.68 85.22,180.18 C84.07,167.29 85.48,156.57 86.12,152.85 C90.52,127.43 116,100.85 130.67,85.54 C132.58,83.54 137.6,78.4 136.19,74.27 C134.61,69.63 129.57,67.15 124.92,68.75 C110.31,73.75 89.94,97.06 77.21,125.17 C74.32,117.57 71.25,110.1 68.23,102.75 C66.11,97.6 63.99,92.45 61.95,87.29 C61.56,86.3 61,85.39 60.28,84.6 C52.29,75.77 41.58,75.18 32.98,74.7 C30.12,74.54 27.41,74.39 25.05,73.95 C24.43,70.82 24.29,65 24.77,62.8 C27.23,59.8 37.48,49.4 39.96,47.31 C53.41,36 86.66,21.33 104.65,18.77 C123.72,16.06 136.95,20.42 153.7,25.94 C159.16,27.74 164.81,29.6 171.05,31.34 C206.17,41.07 237.96,42.95 270.13,44.16 C270.13,44.16 276.54,44.42 276.54,44.42 C297.65,45.33 312.92,45.98 335.84,35.08 C364.53,21.46 374.15,20.4 404.41,27.52 C404.41,27.52 408.53,28.48 408.53,28.48 C420.7,31.29 433.28,34.2 440.48,41.85 C451.99,54.08 463.29,71.24 466.54,83.64 C464.99,84.02 463.52,84.83 462.33,86.04z "/></g><g id="_R_G_L_0_G_L_9_G_M"><g id="_R_G_L_0_G_L_9_G"><path id="_R_G_L_0_G_L_9_G_D_0_P_0" fill="#000000" fill-opacity="1" fill-rule="nonzero" d=" M214.69 49.52 C216.51,44.87 220.94,33.7 215.6,27.1 C215.42,26.87 212.03,22.8 206.97,22.68 C200.57,22.51 199.42,29.04 192.48,30.17 C186.56,31.14 181.17,27.44 176.15,24.01 C170.79,20.34 170.05,18.11 165.94,14.56 C158.52,8.14 149.14,5.23 142.74,4.69 C132.74,3.84 128.52,8.52 110.6,16.31 C95.39,22.92 87.78,26.2 80.92,26.76 C59.21,28.52 32.23,13.8 24.2,5.36 C23.34,4.45 20.59,1.4 16.39,0.8 C12.48,0.25 8.61,1.99 6.37,4.01 C0.25,9.51 2.25,20.61 3.03,24.99 C7.54,50.25 30.99,71.97 57.4,82.26 C57.4,82.26 57.42,82.26 57.42,82.27 C67.22,85.68 135.48,108.61 181.02,84.04 C183.99,82.43 206.77,69.82 214.69,49.52z "/></g></g><g id="_R_G_L_0_G_L_8_G_M"><g id="_R_G_L_0_G_L_8_G"><path id="_R_G_L_0_G_L_8_G_D_0_P_0" fill="#000000" fill-opacity="1" fill-rule="nonzero" d=" M214.69 49.52 C216.51,44.87 220.94,33.7 215.6,27.1 C215.42,26.87 212.03,22.8 206.97,22.68 C200.57,22.51 199.42,29.04 192.48,30.17 C186.56,31.14 181.17,27.44 176.15,24.01 C170.79,20.34 170.05,18.11 165.94,14.56 C158.52,8.14 149.14,5.23 142.74,4.69 C132.74,3.84 128.52,8.52 110.6,16.31 C95.39,22.92 87.78,26.2 80.92,26.76 C59.21,28.52 32.23,13.8 24.2,5.36 C23.34,4.45 20.59,1.4 16.39,0.8 C12.48,0.25 8.61,1.99 6.37,4.01 C0.25,9.51 2.25,20.61 3.03,24.99 C7.54,50.25 30.99,71.97 57.4,82.26 C57.4,82.26 57.42,82.26 57.42,82.27 C67.22,85.68 135.48,108.61 181.02,84.04 C183.99,82.43 206.77,69.82 214.69,49.52z "/></g></g><g id="_R_G_L_0_G_L_7_G" transform=" translate(594.68, 485.75)"><path id="_R_G_L_0_G_L_7_G_D_0_P_0" fill="#000000" fill-opacity="1" fill-rule="nonzero" d=" M35.1 35.26 C31.81,40.43 26.41,43.33 20.28,43.33 C19.34,43.33 18.38,43.26 17.4,43.12 C7.3,41.66 0.45,33.68 0.35,23.25 C0.25,12.37 7.5,2.97 17.23,1.37 C17.23,1.37 17.24,1.37 17.24,1.37 C24.08,0.25 30.52,3.18 34.49,9.19 C39.48,16.73 39.73,27.94 35.1,35.26z "/></g><g id="_R_G_L_0_G_L_6_G" transform=" translate(410.65, 485.1)"><path id="_R_G_L_0_G_L_6_G_D_0_P_0" fill="#000000" fill-opacity="1" fill-rule="nonzero" d=" M35.68 41.66 C31.97,45.77 27.02,47.93 21.61,47.93 C19.96,47.93 18.27,47.74 16.56,47.33 C16.37,47.29 16.19,47.25 16,47.2 C6.45,44.67 0.25,35.36 0.56,24.04 C0.89,12.69 7.48,3.77 16.97,1.82 C24.73,0.25 35.03,1.29 40.18,15.05 C43.53,24.1 41.68,35.03 35.68,41.66z "/></g><g id="_R_G_L_0_G_L_5_G_N_11_T_0_M"><g id="_R_G_L_0_G_L_5_G_N_11_T_0"><g id="_R_G_L_0_G_L_5_G" transform=" translate(119.224, 118.627) translate(-62.05, -46.169)"><path id="_R_G_L_0_G_L_5_G_D_0_P_0" fill="#000000" fill-opacity="1" fill-rule="nonzero" d=" M123.85 9.08 C122.23,17.92 121.02,28.04 119.84,37.85 C118.43,49.71 116.96,61.97 114.73,72.4 C114.62,72.93 114.46,73.44 114.26,73.94 C112.52,78.15 108.74,81.29 105.41,84.07 C104.67,84.68 103.95,85.28 103.29,85.87 C103.68,85.66 104.07,85.44 104.45,85.22 C98.52,89.2 92.66,90.99 88.72,91.81 C85.7,92.09 82.51,91.61 78,89.58 C76.13,88.72 74.51,87.81 73.01,86.8 C64.25,81.07 62.9,74.04 61.91,68.91 C61.69,67.74 61.46,66.51 61.1,65.2 C60.94,64.6 60.8,64.15 60.65,63.69 C60.13,62.19 59.49,60.53 58.76,58.84 C58.7,58.69 58.64,58.54 58.59,58.39 C50.33,39.23 34.51,23.41 12.83,12.62 C11.07,11.73 9.35,10.92 7.62,10.2 C5.1,9.09 2.7,8.18 0.25,7.31 C2.22,7.66 93.48,24.09 123.85,9.08z "/><path id="_R_G_L_0_G_L_5_G_D_1_P_0" fill="#ff7664" fill-opacity="1" fill-rule="nonzero" d=" M101.92 65.31 C101.35,66.6 99.62,70.12 98.08,72.4 C97.41,73.4 96.78,74.21 96.35,74.44 C94.82,75.35 89.2,75.92 87.42,75.54 C87.18,75.54 85.07,74.21 83.19,72.97 C81.61,71.92 80.12,70.97 79.98,70.83 C78.06,68.45 76.04,63.7 74.45,59.46 C73.69,57.42 73.01,55.52 72.44,53.99 C72.44,53.99 72.44,53.9 72.44,53.9 C67.54,40.77 58.41,23.41 44.92,17.99 C43,17.23 39.25,15.85 37.77,15.28 C36.47,14.8 35.17,14.28 33.59,13.33 C36.09,10.76 35.12,11.62 38.15,9.43 C38.15,9.43 40.12,8 40.12,8 C43.91,5.39 51.6,0.39 61.78,2.68 C62.11,2.77 62.5,2.82 62.83,2.91 C73.73,5.81 83.19,16.8 85.4,26.12 C86.46,25.98 86.32,25.32 86.41,24.55 C87.32,19.27 87.13,10.86 86.41,5.48 C91.26,0.25 100.91,3.1 105.28,8 C105.48,8.24 105.76,8.91 106.05,9.86 C106.24,10.52 106.48,11.33 106.72,12.19 C107.59,15.66 108.5,20.13 108.6,21.37 C109.7,33.97 105,57.89 101.83,65.36 C101.83,65.36 101.92,65.31 101.92,65.31z "/></g></g></g><g id="_R_G_L_0_G_L_4_G_N_10_T_0_M"><g id="_R_G_L_0_G_L_4_G_N_10_T_0"><g id="_R_G_L_0_G_L_4_G" transform=" translate(119.224, 118.627) translate(-62.05, -46.169)"><path id="_R_G_L_0_G_L_4_G_D_0_P_0" fill="#000000" fill-opacity="1" fill-rule="nonzero" d=" M123.85 9.08 C122.23,17.92 121.02,28.04 119.84,37.85 C118.43,49.71 116.96,61.97 114.73,72.4 C114.62,72.93 114.46,73.44 114.26,73.94 C112.52,78.15 108.74,81.29 105.41,84.07 C104.67,84.68 103.95,85.28 103.29,85.87 C103.68,85.66 104.07,85.44 104.45,85.22 C98.52,89.2 92.66,90.99 88.72,91.81 C85.7,92.09 82.51,91.61 78,89.58 C76.13,88.72 74.51,87.81 73.01,86.8 C64.25,81.07 62.9,74.04 61.91,68.91 C61.69,67.74 61.46,66.51 61.1,65.2 C60.94,64.6 60.8,64.15 60.65,63.69 C60.13,62.19 59.49,60.53 58.76,58.84 C58.7,58.69 58.64,58.54 58.59,58.39 C50.33,39.23 34.51,23.41 12.83,12.62 C11.07,11.73 9.35,10.92 7.62,10.2 C5.1,9.09 2.7,8.18 0.25,7.31 C2.22,7.66 93.48,24.09 123.85,9.08z "/><path id="_R_G_L_0_G_L_4_G_D_1_P_0" fill="#ff7664" fill-opacity="1" fill-rule="nonzero" d=" M101.92 65.31 C101.35,66.6 99.62,70.12 98.08,72.4 C97.41,73.4 96.78,74.21 96.35,74.44 C94.82,75.35 89.2,75.92 87.42,75.54 C87.18,75.54 85.07,74.21 83.19,72.97 C81.61,71.92 80.12,70.97 79.98,70.83 C78.06,68.45 76.04,63.7 74.45,59.46 C73.69,57.42 73.01,55.52 72.44,53.99 C72.44,53.99 72.44,53.9 72.44,53.9 C67.54,40.77 58.41,23.41 44.92,17.99 C43,17.23 39.25,15.85 37.77,15.28 C36.47,14.8 35.17,14.28 33.59,13.33 C36.09,10.76 35.12,11.62 38.15,9.43 C38.15,9.43 40.12,8 40.12,8 C43.91,5.39 51.6,0.39 61.78,2.68 C62.11,2.77 62.5,2.82 62.83,2.91 C73.73,5.81 83.19,16.8 85.4,26.12 C86.46,25.98 86.32,25.32 86.41,24.55 C87.32,19.27 87.13,10.86 86.41,5.48 C91.26,0.25 100.91,3.1 105.28,8 C105.48,8.24 105.76,8.91 106.05,9.86 C106.24,10.52 106.48,11.33 106.72,12.19 C107.59,15.66 108.5,20.13 108.6,21.37 C109.7,33.97 105,57.89 101.83,65.36 C101.83,65.36 101.92,65.31 101.92,65.31z "/></g></g></g><g id="_R_G_L_0_G_L_3_G" transform=" translate(515.181, 449.278) translate(-32.134, -63.771)"><path id="_R_G_L_0_G_L_3_G_D_0_P_0" fill="#ffffff" fill-opacity="1" fill-rule="nonzero" d=" M17.47 0.33 C19.24,0.27 20.14,0.25 20.54,0.33 C28.3,1.85 31.67,15.61 32.9,20.9 C36.31,35.52 34.03,39.76 34.1,58.33 C34.24,94.9 45.72,101.37 63.35,112.83 C63.35,112.83 64.02,127.29 53.74,127.29 C43.46,127.29 35.3,107.32 27.67,100.61 C18.44,92.53 19.6,63.18 19.6,47.68 C19.6,42.02 19.6,35.79 19.93,30.17 C19.84,18.14 9.27,11.67 2.41,5.92 C1.72,5.34 0.25,4.11 0.52,3.02 C1.07,0.8 8.31,0.59 17.47,0.33z "/></g><g id="_R_G_L_0_G_L_2_G"><path id="_R_G_L_0_G_L_2_G_D_0_P_0" fill="#000000" fill-opacity="1" fill-rule="nonzero" d=" M79.56 40.84 C76.81,46.77 59.74,61.03 52.61,62.43 C51.68,62.6 50.66,62.68 49.57,62.68 C36.51,62.68 12.87,50.95 7.16,42.52 C6.17,41.08 2.19,33.27 1.61,30.14 C0.25,23.34 4.65,12.37 10.34,8.51 C17.68,3.4 32.96,1.67 37.72,1.47 C39.3,1.4 75.36,0.25 80.14,20.21 C80.8,22.97 81.86,35.72 79.56,40.84z "/></g><g id="_R_G_L_0_G_L_1_G_M"><g id="_R_G_L_0_G_L_1_G" transform=" translate(514.968, 649.664) scale(0.24015, 0.25531) translate(-540, -540)"><g id="_R_G_L_0_G_L_1_G_L_5_G_M"><g id="_R_G_L_0_G_L_1_G_L_5_G" transform=" translate(547.98, 326.095) translate(-454.576, -127.673)"><path id="_R_G_L_0_G_L_1_G_L_5_G_D_0_P_0" fill="#000000" fill-opacity="1" fill-rule="nonzero" d=" M888.91 187.69 C875.02,220.15 844.15,238.83 819.47,244.59 C819.47,244.59 818.88,244.73 818.3,244.85 C771.42,255.1 673.15,160.58 609.68,136.22 C507.7,97.07 458.45,224.79 282.78,228.6 C164.09,231.18 36.21,176.13 15.75,101.47 C15.07,99.01 0.25,41.93 29.41,15.63 C38.58,7.37 54.37,0.25 70.37,2.54 C87.6,5 98.81,17.43 102.37,21.16 C135.22,55.73 245.61,115.96 334.44,108.72 C335.1,108.68 335.75,108.6 336.45,108.51 C352.16,107 369.1,101.93 392.05,92.92 C398.64,90.35 405.76,87.44 413.49,84.21 C425.89,79.01 439.84,72.96 455.88,65.96 C529.16,34.09 546.47,14.94 587.34,18.42 C613.57,20.63 651.95,32.53 682.31,58.8 C692.21,67.35 697.32,74.06 704.32,81.18 C709.23,86.13 715.08,91.33 724.04,97.47 C728.5,100.53 733.04,103.64 737.67,106.59 C754.32,117.19 771.95,125.78 790.86,122.71 C819.25,118.05 824,91.33 850.19,92.02 C869.39,92.53 882.9,107.09 885.5,110.11 C908.9,137.32 892.54,179.22 888.91,187.69z "/></g></g><g id="_R_G_L_0_G_L_1_G_L_4_G_M"><g id="_R_G_L_0_G_L_1_G_L_4_G" transform=" translate(547.254, 402.105) translate(-452.963, -203.683)"><path id="_R_G_L_0_G_L_1_G_L_4_G_D_0_P_0" fill="#000000" fill-opacity="1" fill-rule="nonzero" d=" M881.21 201.84 C853.1,247.26 786.61,253.27 735.88,256.59 C735.88,256.59 735.67,256.59 735.67,256.59 C729.66,257 723.72,257.36 717.87,257.73 C719.84,243.78 721.68,229.54 723.4,215.3 C709.12,220.09 692.79,223.77 674.95,226.47 C673.89,226.64 672.78,226.8 671.72,226.92 C647.54,230.44 620.78,232.28 592.75,232.82 C583.42,233.02 573.97,233.06 564.44,232.98 C551.63,232.9 538.66,232.57 525.61,232.08 C501.96,231.18 478.19,229.66 454.91,227.78 C462.44,240.06 469.1,252.74 474.91,265.79 C468.08,265.55 461.33,265.26 454.54,264.89 C417.26,262.85 380.36,258.8 341.49,251.96 C308.76,246.15 274.59,238.42 237.73,228.27 C43.38,174.76 20.71,122.46 15.19,101.48 C13.75,96.03 0.25,41.33 28.85,15.63 C38.02,7.37 53.81,0.25 69.81,2.54 C87.03,5 98.24,17.43 101.8,21.16 C134.66,55.73 245.05,115.96 333.88,108.72 C334.53,108.68 335.19,108.59 335.88,108.51 C351.59,107 368.53,101.92 391.49,92.92 C398.07,90.35 405.19,87.44 412.93,84.21 C425.32,79.01 439.28,72.96 455.32,65.96 C528.6,34.09 545.9,14.94 586.78,18.42 C613.01,20.63 651.38,32.53 681.74,58.8 C691.65,67.35 696.76,74.06 703.76,81.18 C708.67,86.13 714.52,91.33 723.48,97.47 C727.94,100.54 732.48,103.64 737.1,106.59 C753.76,117.19 771.39,125.78 790.29,122.71 C818.69,118.05 823.44,91.33 849.62,92.02 C870.32,92.56 884.2,109.17 884.93,110.11 C905.68,135.76 895.53,178.72 881.21,201.84z "/><path id="_R_G_L_0_G_L_1_G_L_4_G_D_1_P_0" fill="#000000" fill-opacity="1" fill-rule="nonzero" d=" M723.4 215.3 C721.68,229.54 719.84,243.78 717.87,257.73 C705.35,258.55 693.12,259.37 681.25,260.11 C675.61,260.47 670,260.8 664.48,261.13 C638.74,262.68 614.4,263.99 591.07,264.93 C588.17,265.06 585.3,265.18 582.48,265.26 C567.51,265.83 552.94,266.2 538.66,266.41 C516.89,266.69 495.78,266.53 474.91,265.79 C469.1,252.74 462.43,240.06 454.91,227.78 C478.19,229.67 501.96,231.18 525.61,232.08 C538.66,232.57 551.63,232.9 564.44,232.98 C573.97,233.06 583.42,233.02 592.75,232.82 C620.78,232.28 647.54,230.44 671.72,226.92 C672.78,226.8 673.89,226.64 674.95,226.47 C692.79,223.77 709.12,220.09 723.4,215.3z "/><path id="_R_G_L_0_G_L_1_G_L_4_G_D_2_P_0" fill="#000000" fill-opacity="1" fill-rule="nonzero" d=" M723.4 215.3 C721.68,229.54 719.84,243.78 717.87,257.73 C714.52,281.79 710.71,305.11 706.13,326.55 C705.68,328.72 705.03,330.81 704.21,332.85 C697.09,350.08 681.62,362.93 667.99,374.3 C664.97,376.8 662.02,379.25 659.32,381.67 C660.92,380.81 662.51,379.91 664.07,379.01 C639.8,395.29 615.83,402.62 599.71,405.97 C587.35,407.12 574.3,405.15 555.85,396.85 C548.19,393.33 541.57,389.61 535.43,385.47 C499.59,362.03 494.06,333.26 490.01,312.27 C489.11,307.49 488.17,302.46 486.7,297.09 C486.04,294.64 485.47,292.8 484.86,290.92 C482.73,284.78 480.11,277.99 477.12,271.07 C476.88,270.46 476.63,269.84 476.43,269.23 C475.94,268.08 475.45,266.94 474.91,265.79 C469.1,252.74 462.43,240.06 454.91,227.78 C478.19,229.66 501.96,231.18 525.61,232.08 C538.66,232.57 551.63,232.9 564.44,232.98 C573.97,233.06 583.42,233.02 592.75,232.82 C620.78,232.28 647.54,230.44 671.72,226.92 C672.78,226.8 673.89,226.64 674.95,226.47 C692.79,223.77 709.12,220.09 723.4,215.3z "/><path id="_R_G_L_0_G_L_1_G_L_4_G_D_3_P_0" fill="#ff7664" fill-opacity="1" fill-rule="nonzero" d=" M664.48 261.13 C660.71,276.68 656.83,289.65 653.35,297.79 C653.35,297.79 653.72,297.58 653.72,297.58 C651.38,302.82 644.31,317.22 638.01,326.55 C635.26,330.64 632.68,333.96 630.93,334.94 C624.67,338.62 601.67,340.96 594.39,339.4 C593.41,339.4 584.77,333.96 577.08,328.89 C570.62,324.63 564.52,320.74 563.95,320.13 C556.09,310.43 547.83,290.96 541.32,273.65 C540.42,271.15 539.52,268.74 538.66,266.41 C536.62,260.8 534.73,255.65 533.1,251.27 C533.1,251.27 533.1,250.86 533.1,250.86 C530.85,244.8 528.35,238.5 525.61,232.08 C538.66,232.57 551.63,232.9 564.44,232.98 C573.97,233.06 583.42,233.02 592.75,232.81 C620.78,232.28 647.54,230.44 671.72,226.92 C669.51,239.07 667.01,250.7 664.48,261.13z "/></g></g><g id="_R_G_L_0_G_L_1_G_L_3_G_M"><g id="_R_G_L_0_G_L_1_G_L_3_G" transform=" translate(547.255, 471.969) translate(-452.962, -273.547)"><path id="_R_G_L_0_G_L_1_G_L_3_G_D_0_P_0" fill="#000000" fill-opacity="1" fill-rule="nonzero" d=" M881.21 201.84 C853.1,247.26 786.61,253.27 735.87,256.59 C735.87,256.59 735.67,256.59 735.67,256.59 C738,239.53 740.58,222.87 743.44,207.2 C725.28,216.16 701.83,222.38 674.95,226.47 C649.95,230.28 622.05,232.24 592.75,232.82 C583.42,233.02 573.97,233.06 564.44,232.98 C501.75,232.53 435.06,226.8 378.39,220.21 C300.08,211.17 240.87,200.53 237.72,199.96 C247.75,203.52 257.57,207.24 267.88,211.78 C274.96,214.73 282,218.04 289.2,221.69 C307.69,230.89 325.16,241 341.49,251.96 C308.75,246.15 274.59,238.42 237.72,228.27 C43.37,174.76 20.71,122.46 15.18,101.48 C13.75,96.03 0.25,41.33 28.85,15.63 C38.01,7.37 53.81,0.25 69.81,2.54 C87.03,5 98.24,17.43 101.8,21.16 C134.66,55.73 245.05,115.96 333.88,108.72 C361.9,106.47 393.08,93.01 455.31,65.96 C528.59,34.09 545.9,14.94 586.78,18.42 C613,20.63 651.38,32.53 681.74,58.8 C698.56,73.33 701.59,82.45 723.48,97.47 C744.06,111.54 766.11,126.64 790.29,122.71 C818.69,118.05 823.43,91.33 849.62,92.02 C870.32,92.56 884.19,109.17 884.93,110.11 C905.67,135.76 895.53,178.72 881.21,201.84z "/><path id="_R_G_L_0_G_L_1_G_L_3_G_D_1_P_0" fill="#000000" fill-opacity="1" fill-rule="nonzero" d=" M743.44 207.2 C740.58,222.87 738,239.53 735.67,256.59 C716.81,257.82 698.68,259 681.25,260.11 C649.26,262.11 619.43,263.79 591.07,264.93 C588.17,265.06 585.3,265.18 582.48,265.26 C537.35,266.94 495.74,267.14 454.54,264.89 C417.26,262.85 380.36,258.8 341.49,251.96 C325.16,241 307.69,230.89 289.2,221.69 C282,218.05 274.96,214.73 267.88,211.79 C257.57,207.24 247.75,203.52 237.73,199.96 C240.88,200.53 300.08,211.17 378.39,220.21 C435.06,226.8 501.75,232.53 564.44,232.98 C573.97,233.06 583.42,233.02 592.75,232.82 C622.05,232.24 649.95,230.28 674.95,226.47 C701.83,222.38 725.28,216.16 743.44,207.2z "/><path id="_R_G_L_0_G_L_1_G_L_3_G_D_2_P_0" fill="#000000" fill-opacity="1" fill-rule="nonzero" d=" M743.44 207.2 C740.58,222.87 738,239.53 735.67,256.59 C732.56,279.01 729.78,302.17 727.04,324.92 C721.27,373.44 715.25,423.61 706.13,466.28 C705.68,468.45 705.02,470.54 704.21,472.58 C697.09,489.81 681.62,502.66 668,514.03 C664.97,516.53 662.02,518.98 659.32,521.39 C660.92,520.54 662.51,519.64 664.07,518.74 C639.8,535.02 615.83,542.34 599.71,545.7 C587.35,546.84 574.3,544.88 555.85,536.57 C548.19,533.05 541.57,529.33 535.43,525.2 C499.59,501.76 494.06,472.99 490.01,452 C489.11,447.21 488.17,442.18 486.7,436.82 C486.04,434.37 485.47,432.53 484.86,430.64 C482.73,424.51 480.11,417.71 477.12,410.8 C476.88,410.19 476.63,409.57 476.43,408.96 C449.67,346.93 403.56,293.41 341.49,251.96 C325.16,241 307.69,230.89 289.2,221.69 C282,218.05 274.96,214.73 267.88,211.79 C257.57,207.24 247.75,203.52 237.73,199.96 C240.88,200.53 300.08,211.17 378.39,220.21 C435.06,226.8 501.75,232.53 564.44,232.98 C573.97,233.06 583.42,233.02 592.75,232.82 C622.05,232.24 649.95,230.28 674.95,226.47 C701.83,222.38 725.28,216.16 743.44,207.2z "/><path id="_R_G_L_0_G_L_1_G_L_3_G_D_3_P_0" fill="#ff7664" fill-opacity="1" fill-rule="nonzero" d=" M653.35 437.52 C653.35,437.52 653.71,437.31 653.71,437.31 C651.38,442.55 644.3,456.95 638,466.28 C635.26,470.37 632.68,473.69 630.93,474.67 C624.67,478.35 601.67,480.68 594.39,479.13 C593.41,479.13 584.77,473.69 577.08,468.61 C570.62,464.36 564.52,460.47 563.95,459.86 C556.09,450.16 547.83,430.68 541.32,413.38 C538.21,404.99 535.43,397.22 533.09,391 C533.09,391 533.09,390.59 533.09,390.59 C517.47,348.77 491.4,296.48 454.54,264.89 C444.06,255.93 432.73,248.61 420.49,243.7 C412.64,240.55 397.34,234.94 391.24,232.57 C385.92,230.65 380.6,228.52 374.14,224.59 C375.94,222.75 377.29,221.32 378.39,220.21 C435.06,226.8 501.75,232.53 564.44,232.98 C572.25,243.37 578.43,254.42 582.48,265.26 C584,269.19 585.22,273.12 586.12,276.96 C590.46,276.39 589.89,273.65 590.26,270.54 C590.58,268.74 590.83,266.9 591.07,264.93 C592.3,255.44 592.79,244.19 592.75,232.82 C622.05,232.24 649.95,230.28 674.95,226.47 C677.94,239.28 680.68,253.19 681.05,257.49 C681.13,258.35 681.17,259.21 681.25,260.11 C684.89,312.32 666.11,407.44 653.35,437.52z "/></g></g><g id="_R_G_L_0_G_L_1_G_L_2_G_M"><g id="_R_G_L_0_G_L_1_G_L_2_G" transform=" translate(547.98, 326.095) translate(-454.576, -127.673)"><path id="_R_G_L_0_G_L_1_G_L_2_G_D_0_P_0" fill="#000000" fill-opacity="1" fill-rule="nonzero" d=" M888.91 187.69 C875.02,220.15 844.15,238.83 819.47,244.59 C819.47,244.59 818.88,244.73 818.3,244.85 C771.42,255.1 673.15,160.58 609.68,136.22 C507.7,97.07 458.45,224.79 282.78,228.6 C164.09,231.18 36.21,176.13 15.75,101.47 C15.07,99.01 0.25,41.93 29.41,15.63 C38.58,7.37 54.37,0.25 70.37,2.54 C87.6,5 98.81,17.43 102.37,21.16 C135.22,55.73 245.61,115.96 334.44,108.72 C335.1,108.68 335.75,108.6 336.45,108.51 C352.16,107 369.1,101.93 392.05,92.92 C398.64,90.35 405.76,87.44 413.49,84.21 C425.89,79.01 439.84,72.96 455.88,65.96 C529.16,34.09 546.47,14.94 587.34,18.42 C613.57,20.63 651.95,32.53 682.31,58.8 C692.21,67.35 697.32,74.06 704.32,81.18 C709.23,86.13 715.08,91.33 724.04,97.47 C728.5,100.53 733.04,103.64 737.67,106.59 C754.32,117.19 771.95,125.78 790.86,122.71 C819.25,118.05 824,91.33 850.19,92.02 C869.39,92.53 882.9,107.09 885.5,110.11 C908.9,137.32 892.54,179.22 888.91,187.69z "/></g></g><g id="_R_G_L_0_G_L_1_G_L_1_G_M"><g id="_R_G_L_0_G_L_1_G_L_1_G" transform=" translate(547.254, 402.105) translate(-452.963, -203.683)"><path id="_R_G_L_0_G_L_1_G_L_1_G_D_0_P_0" fill="#000000" fill-opacity="1" fill-rule="nonzero" d=" M881.21 201.84 C853.1,247.26 786.61,253.27 735.88,256.59 C735.88,256.59 735.67,256.59 735.67,256.59 C729.66,257 723.72,257.36 717.87,257.73 C719.84,243.78 721.68,229.54 723.4,215.3 C709.12,220.09 692.79,223.77 674.95,226.47 C673.89,226.64 672.78,226.8 671.72,226.92 C647.54,230.44 620.78,232.28 592.75,232.82 C583.42,233.02 573.97,233.06 564.44,232.98 C551.63,232.9 538.66,232.57 525.61,232.08 C501.96,231.18 478.19,229.66 454.91,227.78 C462.44,240.06 469.1,252.74 474.91,265.79 C468.08,265.55 461.33,265.26 454.54,264.89 C417.26,262.85 380.36,258.8 341.49,251.96 C308.76,246.15 274.59,238.42 237.73,228.27 C43.38,174.76 20.71,122.46 15.19,101.48 C13.75,96.03 0.25,41.33 28.85,15.63 C38.02,7.37 53.81,0.25 69.81,2.54 C87.03,5 98.24,17.43 101.8,21.16 C134.66,55.73 245.05,115.96 333.88,108.72 C334.53,108.68 335.19,108.59 335.88,108.51 C351.59,107 368.53,101.92 391.49,92.92 C398.07,90.35 405.19,87.44 412.93,84.21 C425.32,79.01 439.28,72.96 455.32,65.96 C528.6,34.09 545.9,14.94 586.78,18.42 C613.01,20.63 651.38,32.53 681.74,58.8 C691.65,67.35 696.76,74.06 703.76,81.18 C708.67,86.13 714.52,91.33 723.48,97.47 C727.94,100.54 732.48,103.64 737.1,106.59 C753.76,117.19 771.39,125.78 790.29,122.71 C818.69,118.05 823.44,91.33 849.62,92.02 C870.32,92.56 884.2,109.17 884.93,110.11 C905.68,135.76 895.53,178.72 881.21,201.84z "/><path id="_R_G_L_0_G_L_1_G_L_1_G_D_1_P_0" fill="#000000" fill-opacity="1" fill-rule="nonzero" d=" M723.4 215.3 C721.68,229.54 719.84,243.78 717.87,257.73 C705.35,258.55 693.12,259.37 681.25,260.11 C675.61,260.47 670,260.8 664.48,261.13 C638.74,262.68 614.4,263.99 591.07,264.93 C588.17,265.06 585.3,265.18 582.48,265.26 C567.51,265.83 552.94,266.2 538.66,266.41 C516.89,266.69 495.78,266.53 474.91,265.79 C469.1,252.74 462.43,240.06 454.91,227.78 C478.19,229.67 501.96,231.18 525.61,232.08 C538.66,232.57 551.63,232.9 564.44,232.98 C573.97,233.06 583.42,233.02 592.75,232.82 C620.78,232.28 647.54,230.44 671.72,226.92 C672.78,226.8 673.89,226.64 674.95,226.47 C692.79,223.77 709.12,220.09 723.4,215.3z "/><path id="_R_G_L_0_G_L_1_G_L_1_G_D_2_P_0" fill="#000000" fill-opacity="1" fill-rule="nonzero" d=" M723.4 215.3 C721.68,229.54 719.84,243.78 717.87,257.73 C714.52,281.79 710.71,305.11 706.13,326.55 C705.68,328.72 705.03,330.81 704.21,332.85 C697.09,350.08 681.62,362.93 667.99,374.3 C664.97,376.8 662.02,379.25 659.32,381.67 C660.92,380.81 662.51,379.91 664.07,379.01 C639.8,395.29 615.83,402.62 599.71,405.97 C587.35,407.12 574.3,405.15 555.85,396.85 C548.19,393.33 541.57,389.61 535.43,385.47 C499.59,362.03 494.06,333.26 490.01,312.27 C489.11,307.49 488.17,302.46 486.7,297.09 C486.04,294.64 485.47,292.8 484.86,290.92 C482.73,284.78 480.11,277.99 477.12,271.07 C476.88,270.46 476.63,269.84 476.43,269.23 C475.94,268.08 475.45,266.94 474.91,265.79 C469.1,252.74 462.43,240.06 454.91,227.78 C478.19,229.66 501.96,231.18 525.61,232.08 C538.66,232.57 551.63,232.9 564.44,232.98 C573.97,233.06 583.42,233.02 592.75,232.82 C620.78,232.28 647.54,230.44 671.72,226.92 C672.78,226.8 673.89,226.64 674.95,226.47 C692.79,223.77 709.12,220.09 723.4,215.3z "/><path id="_R_G_L_0_G_L_1_G_L_1_G_D_3_P_0" fill="#ff7664" fill-opacity="1" fill-rule="nonzero" d=" M664.48 261.13 C660.71,276.68 656.83,289.65 653.35,297.79 C653.35,297.79 653.72,297.58 653.72,297.58 C651.38,302.82 644.31,317.22 638.01,326.55 C635.26,330.64 632.68,333.96 630.93,334.94 C624.67,338.62 601.67,340.96 594.39,339.4 C593.41,339.4 584.77,333.96 577.08,328.89 C570.62,324.63 564.52,320.74 563.95,320.13 C556.09,310.43 547.83,290.96 541.32,273.65 C540.42,271.15 539.52,268.74 538.66,266.41 C536.62,260.8 534.73,255.65 533.1,251.27 C533.1,251.27 533.1,250.86 533.1,250.86 C530.85,244.8 528.35,238.5 525.61,232.08 C538.66,232.57 551.63,232.9 564.44,232.98 C573.97,233.06 583.42,233.02 592.75,232.81 C620.78,232.28 647.54,230.44 671.72,226.92 C669.51,239.07 667.01,250.7 664.48,261.13z "/></g></g><g id="_R_G_L_0_G_L_1_G_L_0_G_M"><g id="_R_G_L_0_G_L_1_G_L_0_G" transform=" translate(547.255, 471.969) translate(-452.962, -273.547)"><path id="_R_G_L_0_G_L_1_G_L_0_G_D_0_P_0" fill="#000000" fill-opacity="1" fill-rule="nonzero" d=" M881.21 201.84 C853.1,247.26 786.61,253.27 735.87,256.59 C735.87,256.59 735.67,256.59 735.67,256.59 C738,239.53 740.58,222.87 743.44,207.2 C725.28,216.16 701.83,222.38 674.95,226.47 C649.95,230.28 622.05,232.24 592.75,232.82 C583.42,233.02 573.97,233.06 564.44,232.98 C501.75,232.53 435.06,226.8 378.39,220.21 C300.08,211.17 240.87,200.53 237.72,199.96 C247.75,203.52 257.57,207.24 267.88,211.78 C274.96,214.73 282,218.04 289.2,221.69 C307.69,230.89 325.16,241 341.49,251.96 C308.75,246.15 274.59,238.42 237.72,228.27 C43.37,174.76 20.71,122.46 15.18,101.48 C13.75,96.03 0.25,41.33 28.85,15.63 C38.01,7.37 53.81,0.25 69.81,2.54 C87.03,5 98.24,17.43 101.8,21.16 C134.66,55.73 245.05,115.96 333.88,108.72 C361.9,106.47 393.08,93.01 455.31,65.96 C528.59,34.09 545.9,14.94 586.78,18.42 C613,20.63 651.38,32.53 681.74,58.8 C698.56,73.33 701.59,82.45 723.48,97.47 C744.06,111.54 766.11,126.64 790.29,122.71 C818.69,118.05 823.43,91.33 849.62,92.02 C870.32,92.56 884.19,109.17 884.93,110.11 C905.67,135.76 895.53,178.72 881.21,201.84z "/><path id="_R_G_L_0_G_L_1_G_L_0_G_D_1_P_0" fill="#000000" fill-opacity="1" fill-rule="nonzero" d=" M743.44 207.2 C740.58,222.87 738,239.53 735.67,256.59 C716.81,257.82 698.68,259 681.25,260.11 C649.26,262.11 619.43,263.79 591.07,264.93 C588.17,265.06 585.3,265.18 582.48,265.26 C537.35,266.94 495.74,267.14 454.54,264.89 C417.26,262.85 380.36,258.8 341.49,251.96 C325.16,241 307.69,230.89 289.2,221.69 C282,218.05 274.96,214.73 267.88,211.79 C257.57,207.24 247.75,203.52 237.73,199.96 C240.88,200.53 300.08,211.17 378.39,220.21 C435.06,226.8 501.75,232.53 564.44,232.98 C573.97,233.06 583.42,233.02 592.75,232.82 C622.05,232.24 649.95,230.28 674.95,226.47 C701.83,222.38 725.28,216.16 743.44,207.2z "/><path id="_R_G_L_0_G_L_1_G_L_0_G_D_2_P_0" fill="#000000" fill-opacity="1" fill-rule="nonzero" d=" M743.44 207.2 C740.58,222.87 738,239.53 735.67,256.59 C732.56,279.01 729.78,302.17 727.04,324.92 C721.27,373.44 715.25,423.61 706.13,466.28 C705.68,468.45 705.02,470.54 704.21,472.58 C697.09,489.81 681.62,502.66 668,514.03 C664.97,516.53 662.02,518.98 659.32,521.39 C660.92,520.54 662.51,519.64 664.07,518.74 C639.8,535.02 615.83,542.34 599.71,545.7 C587.35,546.84 574.3,544.88 555.85,536.57 C548.19,533.05 541.57,529.33 535.43,525.2 C499.59,501.76 494.06,472.99 490.01,452 C489.11,447.21 488.17,442.18 486.7,436.82 C486.04,434.37 485.47,432.53 484.86,430.64 C482.73,424.51 480.11,417.71 477.12,410.8 C476.88,410.19 476.63,409.57 476.43,408.96 C449.67,346.93 403.56,293.41 341.49,251.96 C325.16,241 307.69,230.89 289.2,221.69 C282,218.05 274.96,214.73 267.88,211.79 C257.57,207.24 247.75,203.52 237.73,199.96 C240.88,200.53 300.08,211.17 378.39,220.21 C435.06,226.8 501.75,232.53 564.44,232.98 C573.97,233.06 583.42,233.02 592.75,232.82 C622.05,232.24 649.95,230.28 674.95,226.47 C701.83,222.38 725.28,216.16 743.44,207.2z "/><path id="_R_G_L_0_G_L_1_G_L_0_G_D_3_P_0" fill="#ff7664" fill-opacity="1" fill-rule="nonzero" d=" M653.35 437.52 C653.35,437.52 653.71,437.31 653.71,437.31 C651.38,442.55 644.3,456.95 638,466.28 C635.26,470.37 632.68,473.69 630.93,474.67 C624.67,478.35 601.67,480.68 594.39,479.13 C593.41,479.13 584.77,473.69 577.08,468.61 C570.62,464.36 564.52,460.47 563.95,459.86 C556.09,450.16 547.83,430.68 541.32,413.38 C538.21,404.99 535.43,397.22 533.09,391 C533.09,391 533.09,390.59 533.09,390.59 C517.47,348.77 491.4,296.48 454.54,264.89 C444.06,255.93 432.73,248.61 420.49,243.7 C412.64,240.55 397.34,234.94 391.24,232.57 C385.92,230.65 380.6,228.52 374.14,224.59 C375.94,222.75 377.29,221.32 378.39,220.21 C435.06,226.8 501.75,232.53 564.44,232.98 C572.25,243.37 578.43,254.42 582.48,265.26 C584,269.19 585.22,273.12 586.12,276.96 C590.46,276.39 589.89,273.65 590.26,270.54 C590.58,268.74 590.83,266.9 591.07,264.93 C592.3,255.44 592.79,244.19 592.75,232.82 C622.05,232.24 649.95,230.28 674.95,226.47 C677.94,239.28 680.68,253.19 681.05,257.49 C681.13,258.35 681.17,259.21 681.25,260.11 C684.89,312.32 666.11,407.44 653.35,437.52z "/></g></g></g></g><g id="_R_G_L_0_G_L_0_G" transform=" translate(519.795, 627.961) translate(440.205, -87.961)"><path id="_R_G_L_0_G_L_0_G_D_0_P_0" fill="#000000" fill-opacity="1" fill-rule="nonzero" d=" M-446.61 78.72 C-446.61,78.72 -464.7,88.73 -464.7,88.73 C-464.7,88.73 -463.09,96.81 -463.09,96.81 C-463.09,96.81 -450.49,88.09 -441.12,88.41 C-431.75,88.73 -417.53,95.84 -415.92,97.13 C-414.3,98.42 -422.38,82.59 -422.38,82.59 C-422.38,82.59 -446.61,78.72 -446.61,78.72z "/><path id="_R_G_L_0_G_L_0_G_D_1_P_0" fill="#000000" fill-opacity="1" fill-rule="nonzero" d=" M-393.3 77.75 C-393.3,77.75 -409.13,77.75 -409.13,77.75 C-409.13,77.75 -412.69,81.62 -412.69,81.62 C-412.69,81.62 -413.98,90.02 -413.98,90.02 C-413.98,90.02 -392.01,87.44 -387.81,93.9 C-383.61,100.36 -393.3,77.75 -393.3,77.75z "/></g></g></g><g id="time_group"/></svg>