<svg width="46" height="45" viewBox="0 0 46 45" fill="none" xmlns="http://www.w3.org/2000/svg">
<path d="M40.702 30.4562L30.8297 26.0324L30.8025 26.0198C30.2899 25.8006 29.7309 25.7126 29.1758 25.7638C28.6207 25.8151 28.0872 26.0039 27.6235 26.3132C27.5689 26.3492 27.5164 26.3884 27.4663 26.4305L22.3656 30.7789C19.1342 29.2093 15.798 25.8982 14.2285 22.7088L18.5831 17.5306C18.625 17.4782 18.6648 17.4258 18.7025 17.3692C19.0052 16.9067 19.1888 16.3766 19.2371 15.826C19.2854 15.2753 19.1967 14.7213 18.9792 14.2132V14.1881L14.5428 4.29902C14.2552 3.63527 13.7606 3.08235 13.1329 2.7228C12.5051 2.36325 11.778 2.21634 11.0599 2.30402C8.22034 2.67768 5.61387 4.07221 3.72732 6.22716C1.84078 8.38211 0.803173 11.1501 0.808308 14.0142C0.808308 30.6531 14.3458 44.1906 30.9848 44.1906C33.8488 44.1958 36.6168 43.1582 38.7718 41.2716C40.9267 39.3851 42.3213 36.7786 42.6949 33.939C42.7828 33.2212 42.6362 32.4942 42.277 31.8665C41.9178 31.2389 41.3654 30.7441 40.702 30.4562ZM30.9848 40.8377C23.8731 40.8299 17.055 38.0014 12.0263 32.9727C6.99755 27.944 4.16901 21.1258 4.16125 14.0142C4.15336 11.9678 4.89062 9.98853 6.23533 8.44599C7.58004 6.90345 9.44025 5.90312 11.4686 5.63181C11.4677 5.64018 11.4677 5.6486 11.4686 5.65696L15.8693 15.5062L11.5377 20.6907C11.4938 20.7413 11.4538 20.7952 11.4183 20.8521C11.1029 21.336 10.9179 21.8931 10.8812 22.4696C10.8445 23.046 10.9573 23.6221 11.2087 24.1421C13.1073 28.0253 17.0198 31.9084 20.9448 33.8049C21.4686 34.054 22.0481 34.1629 22.6266 34.121C23.2051 34.0791 23.7629 33.8879 24.2454 33.566C24.2992 33.5298 24.3509 33.4906 24.4004 33.4487L29.4948 29.1024L39.3441 33.5136C39.3441 33.5136 39.3608 33.5136 39.3671 33.5136C39.0991 35.5448 38.1003 37.4088 36.5575 38.7568C35.0147 40.1048 33.0335 40.8446 30.9848 40.8377Z" fill="#FBF7EF"/>
<path d="M26.5434 16.0428C25.9086 16.0428 25.3632 15.9444 24.9072 15.7477C24.4512 15.5421 24.0935 15.2694 23.8343 14.9296C23.5839 14.5809 23.4408 14.183 23.4051 13.736H25.2693C25.3051 13.8969 25.3721 14.0444 25.4705 14.1785C25.5778 14.3127 25.7164 14.42 25.8863 14.5004C26.0651 14.5809 26.2752 14.6211 26.5166 14.6211C26.7491 14.6211 26.9413 14.5898 27.0933 14.5272C27.2453 14.4557 27.3571 14.3663 27.4286 14.259C27.5001 14.1517 27.5359 14.0355 27.5359 13.9103C27.5359 13.7225 27.4823 13.5795 27.375 13.4811C27.2766 13.3828 27.1246 13.3023 26.919 13.2397C26.7133 13.1771 26.4674 13.119 26.1813 13.0654C25.8505 12.9938 25.5286 12.9134 25.2157 12.824C24.9027 12.7256 24.6211 12.6049 24.3707 12.4618C24.1293 12.3098 23.9371 12.1221 23.794 11.8985C23.651 11.6661 23.5794 11.3844 23.5794 11.0536C23.5794 10.6512 23.6912 10.2891 23.9147 9.96725C24.1383 9.64536 24.4557 9.39501 24.867 9.21619C25.2872 9.02842 25.7879 8.93454 26.3691 8.93454C27.2006 8.93454 27.8533 9.11784 28.3272 9.48442C28.81 9.85101 29.0961 10.3562 29.1855 11H27.4152C27.3705 10.7943 27.2543 10.6378 27.0665 10.5305C26.8877 10.4232 26.6507 10.3696 26.3557 10.3696C26.0517 10.3696 25.8147 10.4277 25.6448 10.544C25.4839 10.6512 25.4034 10.7898 25.4034 10.9597C25.4034 11.0849 25.4526 11.1967 25.551 11.295C25.6583 11.3934 25.8103 11.4783 26.007 11.5498C26.2126 11.6124 26.4674 11.675 26.7714 11.7376C27.3079 11.8449 27.7728 11.9656 28.1663 12.0997C28.5686 12.2338 28.8771 12.4305 29.0917 12.6898C29.3152 12.9491 29.427 13.3202 29.427 13.803C29.427 14.2411 29.3063 14.6301 29.0648 14.9698C28.8324 15.3096 28.5015 15.5734 28.0724 15.7611C27.6432 15.9489 27.1335 16.0428 26.5434 16.0428ZM34.1765 16.0428C33.5238 16.0428 32.9382 15.8908 32.4196 15.5868C31.901 15.2828 31.4897 14.8625 31.1857 14.3261C30.8906 13.7896 30.7431 13.1771 30.7431 12.4887C30.7431 11.7912 30.8906 11.1743 31.1857 10.6378C31.4897 10.1014 31.901 9.6856 32.4196 9.39054C32.9382 9.08654 33.5238 8.93454 34.1765 8.93454C34.8382 8.93454 35.4238 9.08654 35.9334 9.39054C36.452 9.6856 36.8589 10.1014 37.1539 10.6378C37.4579 11.1743 37.6099 11.7912 37.6099 12.4887C37.6099 13.1861 37.4579 13.803 37.1539 14.3395C36.8589 14.867 36.452 15.2828 35.9334 15.5868C35.4149 15.8908 34.8292 16.0428 34.1765 16.0428ZM34.1765 14.42C34.4626 14.42 34.7174 14.3484 34.941 14.2054C35.1734 14.0623 35.3567 13.8477 35.4909 13.5616C35.625 13.2665 35.692 12.9089 35.692 12.4887C35.692 12.0595 35.625 11.7018 35.4909 11.4157C35.3657 11.1296 35.1869 10.915 34.9544 10.772C34.7309 10.6289 34.4716 10.5574 34.1765 10.5574C33.8993 10.5574 33.6445 10.6289 33.412 10.772C33.1796 10.915 32.9963 11.1296 32.8622 11.4157C32.728 11.7018 32.661 12.0595 32.661 12.4887C32.661 12.9089 32.728 13.2665 32.8622 13.5616C32.9963 13.8477 33.1751 14.0623 33.3986 14.2054C33.6311 14.3484 33.8904 14.42 34.1765 14.42ZM41.946 16.0428C41.3112 16.0428 40.7658 15.9444 40.3098 15.7477C39.8538 15.5421 39.4961 15.2694 39.2368 14.9296C38.9865 14.5809 38.8434 14.183 38.8077 13.736H40.6719C40.7077 13.8969 40.7747 14.0444 40.8731 14.1785C40.9804 14.3127 41.1189 14.42 41.2888 14.5004C41.4677 14.5809 41.6778 14.6211 41.9192 14.6211C42.1517 14.6211 42.3439 14.5898 42.4959 14.5272C42.6479 14.4557 42.7597 14.3663 42.8312 14.259C42.9027 14.1517 42.9385 14.0355 42.9385 13.9103C42.9385 13.7225 42.8848 13.5795 42.7775 13.4811C42.6792 13.3828 42.5272 13.3023 42.3215 13.2397C42.1159 13.1771 41.87 13.119 41.5839 13.0654C41.2531 12.9938 40.9312 12.9134 40.6182 12.824C40.3053 12.7256 40.0237 12.6049 39.7733 12.4618C39.5319 12.3098 39.3397 12.1221 39.1966 11.8985C39.0535 11.6661 38.982 11.3844 38.982 11.0536C38.982 10.6512 39.0938 10.2891 39.3173 9.96725C39.5408 9.64536 39.8582 9.39501 40.2695 9.21619C40.6898 9.02842 41.1905 8.93454 41.7717 8.93454C42.6032 8.93454 43.2559 9.11784 43.7298 9.48442C44.2126 9.85101 44.4987 10.3562 44.5881 11H42.8178C42.7731 10.7943 42.6568 10.6378 42.4691 10.5305C42.2902 10.4232 42.0533 10.3696 41.7582 10.3696C41.4542 10.3696 41.2173 10.4277 41.0474 10.544C40.8865 10.6512 40.806 10.7898 40.806 10.9597C40.806 11.0849 40.8552 11.1967 40.9535 11.295C41.0608 11.3934 41.2128 11.4783 41.4095 11.5498C41.6152 11.6124 41.87 11.675 42.174 11.7376C42.7105 11.8449 43.1754 11.9656 43.5688 12.0997C43.9712 12.2338 44.2797 12.4305 44.4942 12.6898C44.7178 12.9491 44.8295 13.3202 44.8295 13.803C44.8295 14.2411 44.7088 14.6301 44.4674 14.9698C44.2349 15.3096 43.9041 15.5734 43.4749 15.7611C43.0458 15.9489 42.5361 16.0428 41.946 16.0428Z" fill="#FBF7EF"/>
</svg>
