<svg width="239" height="59" viewBox="0 0 239 59" fill="none" xmlns="http://www.w3.org/2000/svg">
<path d="M131.604 12.0866C138.678 12.0866 143.138 14.9317 143.138 19.507C143.138 23.3133 140.024 25.9278 134.91 26.6967L136.679 29.811C139.908 35.5397 143.523 33.502 143.523 35.9242C143.523 36.9623 142.677 39.6152 139.293 39.6152C135.91 39.6152 133.449 37.7697 130.258 31.3489L129.528 29.8879C128.759 28.35 128.067 27.5426 127.567 27.5426C127.067 27.5426 126.875 28.6191 126.875 29.3881C126.875 34.4632 128.951 35.5013 128.951 37.2314C128.951 37.9235 128.528 39 126.875 39H120.415C118.762 39 118.339 37.9235 118.339 37.2314C118.339 35.5013 120.415 34.4632 120.415 29.3881V21.6985C120.415 16.6234 118.339 15.5853 118.339 13.8552C118.339 13.1631 118.762 12.0866 120.415 12.0866H131.604ZM126.875 21.6985C126.875 23.9285 127.759 24.1592 128.759 24.1592H131.604C134.526 24.1592 136.371 22.3521 136.371 19.507C136.371 16.6618 134.526 14.8548 131.604 14.8548H128.759C127.759 14.8548 126.875 15.0855 126.875 17.3155V21.6985ZM152.987 21.6985C150.834 21.6985 149.719 23.7747 149.719 27.4272C149.719 29.042 149.988 30.4646 150.449 31.6565C152.141 28.5807 155.486 27.927 155.486 24.5052C155.486 23.2749 154.794 21.6985 152.987 21.6985ZM143.529 29.3881C143.529 23.1211 147.412 19.161 153.602 19.161C158.254 19.161 161.791 21.1987 161.791 24.3514C161.791 30.0417 152.718 29.7341 152.718 33.3482C152.718 34.3094 153.602 35.655 155.947 35.655C159.215 35.655 160.715 33.9633 161.561 33.9633C161.983 33.9633 162.137 34.3094 162.137 34.5401C162.137 36.5009 158.446 39.6152 153.602 39.6152C147.412 39.6152 143.529 35.655 143.529 29.3881ZM164.979 29.3881V22.3137H163.441C163.018 22.3137 162.903 22.083 162.903 21.7754C162.903 20.8142 163.941 20.0068 164.979 19.8146V18.0075C164.979 13.2016 167.247 9.54901 172.053 9.54901C176.321 9.54901 178.359 12.2019 178.359 14.7395C178.359 16.6618 177.474 18.0075 175.86 18.0075C172.361 18.0075 173.13 12.2019 170.4 12.2019C169.593 12.2019 169.4 12.8555 169.4 13.2784C169.4 14.5088 170.746 16.4696 171.054 19.7761H173.783C174.514 19.7761 175.052 20.3144 175.052 21.0449C175.052 21.7754 174.514 22.3137 173.783 22.3137H171.13V29.3881C171.13 34.4632 173.207 35.5013 173.207 37.2314C173.207 37.9235 172.784 39 171.13 39H164.979C163.326 39 162.903 37.9235 162.903 37.2314C162.903 35.5013 164.979 34.4632 164.979 29.3881ZM195.912 39.6152C193.452 39.6152 192.145 38.5386 191.645 36.3087C189.991 38.3079 187.531 39.6152 184.493 39.6152C180.687 39.6152 178.572 37.6928 178.572 32.1947V29.3881C178.572 24.5821 176.035 23.4671 176.035 21.5447C176.035 19.9299 178.303 19.161 180.226 19.161C183.455 19.161 184.724 21.0064 184.724 24.9281V30.6568C184.724 34.1171 184.763 36.3471 186.647 36.3471C189.415 36.3471 191.414 33.0021 191.414 29.3881C191.414 24.5821 188.876 23.4671 188.876 21.5447C188.876 19.9684 191.145 19.161 193.067 19.161C196.297 19.161 197.566 21.0064 197.566 24.9281V29.3881C197.566 34.194 200.103 35.2706 200.103 37.1161C200.103 38.7309 197.835 39.6152 195.912 39.6152ZM209.785 32.8484C211.285 32.8484 212.323 31.2336 212.323 28.5807C212.323 25.9278 211.208 21.6985 208.632 21.6985C207.094 21.6985 206.094 23.3902 206.094 26.1584C206.094 28.8113 207.248 32.8484 209.785 32.8484ZM198.751 42.8063C198.751 39.7305 201.404 38.0773 203.903 38.0773C205.21 38.0773 206.056 38.654 206.056 39.4229C206.056 40.3841 205.056 40.8839 205.056 42.8063C205.056 45.1901 206.671 46.6896 209.208 46.6896C211.669 46.6896 213.245 45.8053 213.245 43.3061C213.245 37.9619 203.095 40.1534 202.595 33.3866C200.827 31.9641 199.866 29.8879 199.866 27.2734C199.866 22.3137 203.364 19.161 209.208 19.161H209.824C213.245 19.161 212.976 13.24 216.629 13.24C218.244 13.24 219.128 14.5857 219.128 16.5081C219.128 18.392 218.051 19.7377 214.476 20.2759C217.09 21.6216 218.551 24.0823 218.551 27.2734C218.551 32.2332 215.053 35.3859 209.208 35.3859C207.978 35.3859 206.863 35.2321 205.863 35.0014C208.862 38.1926 219.512 35.2321 219.512 42.1527C219.512 46.0744 215.668 49.2271 208.824 49.2271C202.403 49.2271 198.751 46.7664 198.751 42.8063ZM228.981 21.6985C226.828 21.6985 225.713 23.7747 225.713 27.4272C225.713 29.042 225.982 30.4646 226.444 31.6565C228.135 28.5807 231.48 27.927 231.48 24.5052C231.48 23.2749 230.788 21.6985 228.981 21.6985ZM219.523 29.3881C219.523 23.1211 223.406 19.161 229.596 19.161C234.248 19.161 237.786 21.1987 237.786 24.3514C237.786 30.0417 228.712 29.7341 228.712 33.3482C228.712 34.3094 229.596 35.655 231.942 35.655C235.21 35.655 236.709 33.9633 237.555 33.9633C237.978 33.9633 238.132 34.3094 238.132 34.5401C238.132 36.5009 234.441 39.6152 229.596 39.6152C223.406 39.6152 219.523 35.655 219.523 29.3881Z" fill="#151516"/>
<path d="M90.2038 51.8546C90.2038 52.6931 88.6255 54.0248 86.554 54.0248C83.9071 54.0248 82.2466 52.3314 82.2466 49.6516C82.2466 46.9718 83.9071 45.2784 86.554 45.2784C89.2338 45.2784 90.0558 46.4128 90.0558 47.4979C90.0558 48.3199 89.6777 48.8953 88.9872 48.8953C87.4254 48.8953 87.7377 46.3635 86.2088 46.3635C85.3703 46.3635 84.8935 47.2513 84.8935 48.8131C84.8935 50.934 85.9622 52.3314 87.5569 52.3314C88.9543 52.3314 89.5955 51.608 89.9572 51.608C90.138 51.608 90.2038 51.756 90.2038 51.8546ZM94.9662 46.3635C93.4701 46.3635 94.0948 48.8953 92.533 48.8953C91.8425 48.8953 91.4643 48.3199 91.4643 47.4979C91.4643 46.4128 92.2864 45.2784 94.9662 45.2784C97.4158 45.2784 98.7639 46.1004 98.7639 48.4514V49.6516C98.7639 51.46 99.849 51.9039 99.849 52.6931C99.849 53.3836 98.879 53.7617 98.057 53.7617C96.9719 53.7617 96.4951 53.0877 96.2814 52.3314C95.5909 53.3507 94.5223 54.0248 93.1741 54.0248C91.6781 54.0248 90.5765 53.0877 90.5765 51.7395C90.5765 49.2735 92.944 49.5694 94.6373 48.583C96.1992 47.6623 95.7717 46.3635 94.9826 46.3635H94.9662ZM93.2728 51.6738C93.2728 52.1999 93.6016 52.6273 94.0948 52.6273C95.2785 52.6273 96.1334 50.5887 96.1334 49.1091V48.7802C95.8046 49.1419 95.41 49.3557 95.0319 49.6023C94.1606 50.1613 93.2728 50.6709 93.2728 51.6738ZM101.89 45.2784C102.942 45.2784 103.501 45.7388 103.715 46.6923C104.422 45.8374 105.474 45.2784 106.773 45.2784C108.4 45.2784 109.305 46.1004 109.305 48.4514V49.6516C109.305 51.7067 110.39 52.1834 110.39 53.0055C110.39 53.696 109.42 54.0248 108.598 54.0248C107.217 54.0248 106.674 53.2356 106.674 51.5587V49.1091C106.674 47.6294 106.658 46.6759 105.852 46.6759C104.668 46.6759 103.814 48.1062 103.814 49.6516C103.814 51.8217 104.701 52.2656 104.701 53.0055C104.701 53.3014 104.521 53.7617 103.814 53.7617H101.183C100.476 53.7617 100.295 53.3014 100.295 53.0055C100.295 52.2656 101.183 51.8217 101.183 49.6516C101.183 47.5965 100.098 47.1198 100.098 46.2977C100.098 45.6072 101.068 45.2784 101.89 45.2784ZM112.422 45.2784C113.803 45.2784 114.346 46.0676 114.346 47.7445V49.6516C114.346 51.8217 115.234 52.2656 115.234 53.0055C115.234 53.3014 115.053 53.7617 114.346 53.7617H111.715C111.008 53.7617 110.828 53.3014 110.828 53.0055C110.828 52.2656 111.715 51.8217 111.715 49.6516C111.715 47.5965 110.63 47.1198 110.63 46.2977C110.63 45.6072 111.6 45.2784 112.422 45.2784ZM110.745 43.1905C110.745 42.5164 111.321 41.9903 112.225 41.9903C113.178 41.9903 114.083 42.6808 114.083 43.5851C114.083 44.2591 113.491 44.7688 112.587 44.7688C111.633 44.7688 110.745 44.0947 110.745 43.1905ZM117.351 45.2784C118.403 45.2784 118.962 45.7388 119.176 46.6923C119.883 45.8374 120.935 45.2784 122.234 45.2784C123.862 45.2784 124.766 46.1004 124.766 48.4514V49.6516C124.766 51.7067 125.851 52.1834 125.851 53.0055C125.851 53.696 124.881 54.0248 124.059 54.0248C122.678 54.0248 122.135 53.2356 122.135 51.5587V49.1091C122.135 47.6294 122.119 46.6759 121.313 46.6759C120.13 46.6759 119.275 48.1062 119.275 49.6516C119.275 51.8217 120.163 52.2656 120.163 53.0055C120.163 53.3014 119.982 53.7617 119.275 53.7617H116.644C115.937 53.7617 115.756 53.3014 115.756 53.0055C115.756 52.2656 116.644 51.8217 116.644 49.6516C116.644 47.5965 115.559 47.1198 115.559 46.2977C115.559 45.6072 116.529 45.2784 117.351 45.2784ZM137.225 47.4979C137.225 48.3199 136.847 48.8953 136.156 48.8953C134.594 48.8953 135.055 46.3635 133.411 46.3635C132.819 46.3635 132.375 46.6594 132.375 47.1033C132.375 48.7967 137.471 48.4514 137.471 51.4436C137.471 53.1205 135.959 54.0248 133.559 54.0248C130.764 54.0248 129.3 52.8904 129.3 51.8053C129.3 50.9833 129.679 50.0133 130.369 50.0133C131.931 50.0133 131.767 52.9397 133.92 52.9397C134.594 52.9397 135.055 52.6602 135.055 52.1999C135.055 50.6873 129.892 50.8518 129.892 47.7445C129.892 46.1662 131.191 45.2784 133.328 45.2784C136.403 45.2784 137.225 46.4128 137.225 47.4979ZM142.105 54.0248C139.458 54.0248 137.797 52.3314 137.797 49.6516C137.797 46.9718 139.458 45.2784 142.105 45.2784C144.752 45.2784 146.412 46.9718 146.412 49.6516C146.412 52.3314 144.752 54.0248 142.105 54.0248ZM140.444 48.8131C140.444 49.8324 140.823 52.9397 142.45 52.9397C143.272 52.9397 143.765 52.0519 143.765 50.5887C143.765 49.4543 143.404 46.3635 141.76 46.3635C140.921 46.3635 140.444 47.2513 140.444 48.8131ZM147.245 45.5415C147.245 43.4864 146.16 43.0261 146.16 42.2369C146.16 41.5464 147.13 41.1683 147.952 41.1683C149.333 41.1683 149.876 41.9574 149.876 43.6344V49.6516C149.876 51.8217 150.764 52.2656 150.764 53.0055C150.764 53.3014 150.583 53.7617 149.876 53.7617H147.245C146.538 53.7617 146.358 53.3014 146.358 53.0055C146.358 52.2656 147.245 51.8217 147.245 49.6516V45.5415ZM152.881 45.2784C154.262 45.2784 154.805 46.0676 154.805 47.7445V49.6516C154.805 51.8217 155.693 52.2656 155.693 53.0055C155.693 53.3014 155.512 53.7617 154.805 53.7617H152.174C151.467 53.7617 151.287 53.3014 151.287 53.0055C151.287 52.2656 152.174 51.8217 152.174 49.6516C152.174 47.5965 151.089 47.1198 151.089 46.2977C151.089 45.6072 152.059 45.2784 152.881 45.2784ZM151.204 43.1905C151.204 42.5164 151.78 41.9903 152.684 41.9903C153.638 41.9903 154.542 42.6808 154.542 43.5851C154.542 44.2591 153.95 44.7688 153.046 44.7688C152.092 44.7688 151.204 44.0947 151.204 43.1905ZM161.455 49.257C161.455 47.4814 160.946 46.3635 159.943 46.3635C158.957 46.3635 158.299 47.6294 158.299 49.6516C158.299 51.5587 158.858 52.7588 159.943 52.7588C160.946 52.7588 161.455 51.8382 161.455 50.3585V49.257ZM155.603 49.8982C155.603 47.2184 156.934 45.2784 159.779 45.2784C160.502 45.2784 160.995 45.3935 161.39 45.525C161.143 44.1605 160.37 43.7001 160.37 43.0096C160.37 42.3191 161.34 41.9903 162.162 41.9903C163.543 41.9903 164.086 42.7795 164.086 44.4564V49.6516C164.086 51.7067 165.171 52.1834 165.171 53.0055C165.171 53.696 164.201 54.0248 163.379 54.0248C162.491 54.0248 161.949 53.696 161.686 53.0383C161.11 53.6631 160.288 54.0248 159.236 54.0248C157.099 54.0248 155.603 52.578 155.603 49.8982ZM169.703 46.3635C168.207 46.3635 168.832 48.8953 167.27 48.8953C166.579 48.8953 166.201 48.3199 166.201 47.4979C166.201 46.4128 167.023 45.2784 169.703 45.2784C172.153 45.2784 173.501 46.1004 173.501 48.4514V49.6516C173.501 51.46 174.586 51.9039 174.586 52.6931C174.586 53.3836 173.616 53.7617 172.794 53.7617C171.709 53.7617 171.232 53.0877 171.018 52.3314C170.328 53.3507 169.259 54.0248 167.911 54.0248C166.415 54.0248 165.313 53.0877 165.313 51.7395C165.313 49.2735 167.681 49.5694 169.374 48.583C170.936 47.6623 170.509 46.3635 169.719 46.3635H169.703ZM168.01 51.6738C168.01 52.1999 168.338 52.6273 168.832 52.6273C170.015 52.6273 170.87 50.5887 170.87 49.1091V48.7802C170.541 49.1419 170.147 49.3557 169.769 49.6023C168.897 50.1613 168.01 50.6709 168.01 51.6738ZM176.627 45.2784C178.008 45.2784 178.55 46.0676 178.55 47.7445V49.6516C178.55 51.8217 179.438 52.2656 179.438 53.0055C179.438 53.3014 179.257 53.7617 178.55 53.7617H175.92C175.213 53.7617 175.032 53.3014 175.032 53.0055C175.032 52.2656 175.92 51.8217 175.92 49.6516C175.92 47.5965 174.835 47.1198 174.835 46.2977C174.835 45.6072 175.805 45.2784 176.627 45.2784ZM174.95 43.1905C174.95 42.5164 175.525 41.9903 176.43 41.9903C177.383 41.9903 178.287 42.6808 178.287 43.5851C178.287 44.2591 177.695 44.7688 176.791 44.7688C175.838 44.7688 174.95 44.0947 174.95 43.1905ZM185.156 46.7909C184.318 46.7909 183.479 48.172 183.479 49.6516C183.479 51.8217 184.367 52.2656 184.367 53.0055C184.367 53.3014 184.186 53.7617 183.479 53.7617H180.849C180.142 53.7617 179.961 53.3014 179.961 53.0055C179.961 52.2656 180.849 51.8217 180.849 49.6516C180.849 47.5965 179.764 47.1198 179.764 46.2977C179.764 45.6072 180.734 45.2784 181.556 45.2784C182.624 45.2784 183.183 45.7388 183.397 46.7252C184.055 45.8538 184.975 45.2784 185.929 45.2784C187.441 45.2784 188.165 46.5608 188.165 47.4979C188.165 48.3199 187.787 48.8953 187.096 48.8953C185.633 48.8953 186.11 46.7909 185.156 46.7909ZM192.384 46.3635C191.463 46.3635 190.986 47.2513 190.986 48.8131C190.986 49.5036 191.101 50.1119 191.298 50.6216C192.022 49.3063 193.452 49.0269 193.452 47.5637C193.452 47.0376 193.156 46.3635 192.384 46.3635ZM188.339 49.6516C188.339 46.9718 190 45.2784 192.647 45.2784C194.636 45.2784 196.148 46.1498 196.148 47.4979C196.148 49.9311 192.268 49.7996 192.268 51.345C192.268 51.756 192.647 52.3314 193.649 52.3314C195.047 52.3314 195.688 51.608 196.05 51.608C196.231 51.608 196.296 51.756 196.296 51.8546C196.296 52.6931 194.718 54.0248 192.647 54.0248C190 54.0248 188.339 52.3314 188.339 49.6516Z" fill="#151516"/>
<path d="M88.7668 19.66C89.9692 19.66 90.2768 20.4429 90.2768 20.9462C90.2768 22.2045 88.7668 22.9595 88.7668 26.6505V35.4306C88.7668 37.0524 89.4099 37.2201 90.1369 37.2201H91.5071C94.6668 37.2201 95.8132 35.4306 97.1554 33.1656C97.435 32.6623 97.6587 32.2429 98.2459 32.2429C98.7772 32.2429 99.2526 32.6344 99.1127 33.4173L98.19 38.3107C98.0782 38.8419 97.7426 39.2334 96.9038 39.2334H84.0692C82.8668 39.2334 82.5592 38.4505 82.5592 37.9471C82.5592 36.6889 84.0692 35.9339 84.0692 32.2429V26.6505C84.0692 22.9595 82.5592 22.2045 82.5592 20.9462C82.5592 20.4429 82.8668 19.66 84.0692 19.66H88.7668ZM106.583 26.6505C105.017 26.6505 104.206 28.1604 104.206 30.8168C104.206 31.9912 104.402 33.0258 104.738 33.8927C105.968 31.6557 108.401 31.1803 108.401 28.6917C108.401 27.7969 107.897 26.6505 106.583 26.6505ZM99.7045 32.2429C99.7045 27.6851 102.529 24.805 107.031 24.805C110.414 24.805 112.986 26.287 112.986 28.5799C112.986 32.7183 106.387 32.4946 106.387 35.123C106.387 35.822 107.031 36.8007 108.736 36.8007C111.113 36.8007 112.204 35.5704 112.819 35.5704C113.126 35.5704 113.238 35.822 113.238 35.9898C113.238 37.4159 110.554 39.6808 107.031 39.6808C102.529 39.6808 99.7045 36.8007 99.7045 32.2429Z" fill="#151516"/>
<g clip-path="url(#clip0_299_14149)">
<path d="M11.4184 39.9201L8.60229 24.2665C8.58213 24.1523 8.55524 24.0448 8.52836 23.9373L6.63974 17.1988C6.3709 16.2448 5.71895 15.4454 4.83849 14.9885L2.27104 13.6583C-0.0880578 12.4356 -0.343459 9.16377 1.80056 7.59169L6.61285 4.06459C7.01612 3.76898 7.47987 3.56072 7.97051 3.45322L21.9302 0.416557C22.4275 0.309064 22.9383 0.309064 23.4357 0.416557L37.8927 3.49353C38.2826 3.57415 38.6791 3.59431 39.0756 3.54728L53.741 1.7535C54.3123 1.68631 54.8836 1.7535 55.4213 1.94833L64.2528 5.22685C64.972 5.49558 65.5903 5.98602 66.007 6.62425L69.0785 11.3338C69.8783 12.5565 69.8515 14.142 69.018 15.3379L67.2504 17.8639C66.9883 18.2335 66.8068 18.6567 66.6993 19.0934L64.2864 29.3791C64.2595 29.4866 64.2394 29.5941 64.2259 29.7083L62.7406 40.4307C62.7002 40.7397 62.6129 41.0488 62.4919 41.3376L59.0238 49.534C58.9969 49.6011 58.9633 49.675 58.9297 49.7422L57.0276 53.5448C56.7655 54.0688 56.3757 54.5189 55.8985 54.8616L51.8995 57.7101C51.2946 58.1401 50.5687 58.3752 49.8226 58.3752H39.4319C38.8068 58.3752 38.1952 58.214 37.6575 57.9049L31.837 54.5861C31.5615 54.4316 31.2658 54.3107 30.9566 54.23L22.0713 51.9391C21.3723 51.7577 20.7473 51.3748 20.2701 50.8306L12.2451 41.6601C11.815 41.1697 11.5327 40.5785 11.4184 39.9335V39.9201Z" fill="black" stroke="black" stroke-width="0.788766"/>
<path d="M61.1904 19.0055C61.1904 19.0055 65.3373 15.0014 66.1438 14.175C66.5403 14.4774 67.1049 15.0216 67.199 14.2422C67.488 11.7363 64.7593 7.96735 63.1059 6.19372C61.7079 4.69554 59.4294 4.28573 57.44 3.80873C52.8226 2.71365 51.2163 2.95551 47.0223 4.96428C43.8029 6.50948 41.8942 6.2609 38.4059 6.12654C33.6138 5.94515 29.4602 5.65626 24.8226 4.35963C21.3008 3.37204 18.9081 1.99479 15.0233 2.55241C12.308 2.94207 7.44192 5.0852 5.34495 6.86555C4.94841 7.20146 3.12699 9.04899 2.92536 9.39834C2.63636 9.8955 2.73045 11.387 2.86487 11.9513C2.97241 12.4081 3.29502 12.7105 3.74533 12.8045C5.1702 13.1001 6.95801 12.697 8.06698 13.9332C9.17596 16.7616 10.4395 19.5631 11.2797 22.4856C11.4141 22.9626 11.4611 23.4597 11.4208 23.9502L11.2393 26.5031C11.2192 27.6049 11.8846 30.6483 12.1332 31.8912C13.0943 36.6746 15.4938 41.9148 18.3099 45.8921C20.2187 48.5995 21.4016 49.6342 24.4328 51.0316C26.7986 52.1199 28.0286 51.8378 30.4616 52.1871C31.7252 52.3685 33.1836 52.8791 34.2993 53.4166C35.1395 53.8197 36.7929 55.6806 37.6733 56.3726C38.3992 56.9504 39.1318 57.508 40.0526 57.7028C43.6685 58.4821 50.2216 57.6424 53.0848 55.2036C55.995 52.7246 55.6589 49.9835 57.3526 46.967C58.1592 45.536 59.7857 44.0983 60.2024 42.7614C61.5063 38.5221 61.3651 35.378 61.4995 31.0648C61.6004 27.8468 62.0641 25.361 61.2979 22.1161L61.1971 18.9988L61.1904 19.0055ZM54.9062 21.1285C56.7881 20.8194 57.0838 24.8638 54.9062 24.5481C52.9705 24.2659 53.3267 21.3905 54.9062 21.1285ZM51.9086 26.6711C51.9959 27.0338 52.0363 28.4783 51.9018 28.7806C51.68 29.2643 49.6032 30.9976 49.0252 31.1118C47.923 31.3201 44.5624 29.7682 43.9306 28.8276C43.8164 28.6597 43.3795 27.7325 43.3459 27.5512C43.2518 27.0742 43.6618 26.0261 44.0449 25.7641C44.7036 25.3005 46.4174 25.0184 47.2307 24.9848C48.4405 24.9377 51.5658 25.2266 51.9086 26.6711ZM39.367 6.17357C40.1601 8.95494 39.8778 15.3172 40.1668 17.9171C42.7948 20.2685 45.4362 22.9223 47.7885 25.0385L45.4227 24.8034L38.7756 18.2598C38.7957 14.7998 38.3185 9.75441 37.6196 6.34152C39.0713 6.02576 39.0511 5.05161 39.367 6.17357ZM28.8351 24.7362C27.1011 24.2726 27.2489 21.1083 28.9023 20.7657C29.897 20.5641 30.4011 20.9404 30.7372 21.8473C31.2211 23.1641 30.5355 25.1796 28.8418 24.7362H28.8351ZM57.7223 36.7082C58.3474 36.7082 57.7425 38.502 57.6282 38.8379C56.8754 41.0952 54.9062 42.0559 52.9705 43.366C52.3858 46.228 52.1908 50.0104 51.5994 52.8052C51.4314 53.215 50.7996 53.6584 50.3627 54.0548C50.2216 54.1824 50.0804 54.2765 49.946 54.3235C49.0992 54.5788 48.9513 54.6998 48.1851 54.3504C48.0103 54.2698 47.8356 54.1757 47.6676 54.0615C46.6325 53.3762 46.7669 52.6775 46.5048 51.7168C46.4847 51.6362 46.4578 51.5489 46.4309 51.4615C46.3368 51.1861 46.236 50.9241 46.1217 50.6553C46.1217 50.6486 46.115 50.6419 46.115 50.6352C44.7641 47.4373 42.1966 45.0523 39.1049 43.5004C38.8428 43.366 38.5739 43.2384 38.3051 43.1241C36.6988 42.412 35.2605 42.2105 33.8289 41.0348C32.6997 40.1144 30.4213 37.2389 30.4213 35.7811V33.6782L30.7305 33.4968C32.1486 35.3108 35.0521 36.8157 37.3104 37.1919C41.8135 37.9443 43.8769 35.7945 47.634 34.424C49.1126 33.8865 50.0267 34.3635 51.2163 35.2973C52.0497 35.9557 53.3805 37.7764 54.3214 38.0182C55.1078 38.2198 57.1913 37.38 57.729 36.7149L57.7223 36.7082Z" fill="white" stroke="black" stroke-width="2.3663" stroke-linejoin="round"/>
<path d="M47.229 24.9852C48.4388 24.9381 51.5641 25.227 51.9069 26.6714C51.9942 27.0342 52.0346 28.4787 51.8934 28.781C51.6716 29.2647 49.5948 30.998 49.0168 31.1122C47.9145 31.3205 44.554 29.7686 43.9289 28.828C43.8147 28.6601 43.3778 27.7329 43.3442 27.5515C43.2501 27.0813 43.6601 26.0265 44.0432 25.7645C44.7019 25.3076 46.4157 25.0255 47.229 24.9919V24.9852Z" fill="black" stroke="black" stroke-width="0.788766" stroke-miterlimit="10"/>
<path d="M28.8996 20.7659C29.8943 20.5643 30.3984 20.9405 30.7277 21.8475C31.2117 23.1643 30.5261 25.1798 28.8324 24.7364C27.1387 24.2863 27.2462 21.1085 28.8996 20.7659Z" fill="black"/>
<path d="M54.9039 21.1292C56.7858 20.8201 57.0883 24.8645 54.9039 24.5488C52.9683 24.2666 53.3245 21.3912 54.9039 21.1292Z" fill="black"/>
<path d="M51.0208 52.0601C50.9401 52.2415 50.6981 52.7386 50.4831 53.0611C50.389 53.2022 50.3016 53.3164 50.2411 53.35C50.026 53.4776 49.2397 53.5582 48.991 53.5045C48.9574 53.5045 48.6617 53.3164 48.3995 53.1417C48.1777 52.9939 47.9694 52.8595 47.9492 52.8394C47.6804 52.5035 47.3981 51.8316 47.1763 51.2337C47.0688 50.9448 46.9747 50.6761 46.894 50.4611V50.4477C46.2085 48.5934 44.9315 46.1412 43.0428 45.3754C42.774 45.2679 42.2498 45.073 42.0414 44.9924C41.8599 44.9252 41.6785 44.8513 41.4567 44.717C41.8062 44.3542 41.6717 44.4751 42.0952 44.1661L42.3707 43.9645C42.9017 43.595 43.9771 42.8896 45.4019 43.2121C45.449 43.2255 45.5028 43.2322 45.5498 43.2457C47.0755 43.6555 48.3995 45.2074 48.7087 46.5242C48.8566 46.504 48.8364 46.41 48.8498 46.3025C48.9775 45.5568 48.9507 44.3676 48.8498 43.6085C49.5287 42.8694 50.8796 43.2725 51.4912 43.9645C51.5181 43.9981 51.5584 44.0922 51.5988 44.2265C51.6257 44.3206 51.6593 44.4348 51.6929 44.5557C51.8138 45.0462 51.9415 45.6777 51.955 45.8524C52.1096 47.6327 51.4509 51.012 51.0073 52.0668L51.0208 52.0601Z" fill="white"/>
<path d="M18.43 12.0391C15.8625 12.9259 10.8284 19.9196 10.9427 25.9728" stroke="black" stroke-width="2.3663" stroke-linecap="round" stroke-linejoin="round"/>
<path d="M55.7126 12.0391C58.2801 12.9259 61.392 15.6401 61.2777 21.6932" stroke="black" stroke-width="2.3663" stroke-linecap="round" stroke-linejoin="round"/>
</g>
<defs>
<clipPath id="clip0_299_14149">
<rect width="70" height="59" fill="white"/>
</clipPath>
</defs>
</svg>
